<svg xmlns="http://www.w3.org/2000/svg" xmlns:xlink="http://www.w3.org/1999/xlink" contentStyleType="text/css" height="564px" preserveAspectRatio="none" style="width:330px;height:564px;background:#FFFFFF;" version="1.1" viewBox="0 0 330 564" width="330px" zoomAndPan="magnify"><defs/><g><ellipse cx="126.3867" cy="20" fill="#222222" rx="10" ry="10" style="stroke:#222222;stroke-width:1.0;"/><rect fill="none" height="513.9717" style="stroke:#000000;stroke-width:1.5;" width="308.5898" x="11" y="40"/><path d="M153.2891,40 L153.2891,50.6094 L143.2891,60.6094 L11,60.6094 " fill="none" style="stroke:#000000;stroke-width:1.5;"/><text fill="#000000" font-family="sans-serif" font-size="14" font-weight="bold" lengthAdjust="spacing" textLength="53.6963" x="14" y="55.5332">process</text><text fill="#000000" font-family="sans-serif" font-size="14" lengthAdjust="spacing" textLength="74.7031" x="71.5859" y="55.5332">MainThread</text><rect fill="#F1F1F1" height="50.1875" rx="12.5" ry="12.5" style="stroke:#181818;stroke-width:0.5;" width="123.3828" x="64.6953" y="77.6094"/><text fill="#000000" font-family="sans-serif" font-size="12" font-weight="bold" lengthAdjust="spacing" textLength="37.3418" x="74.6953" y="100.0664">Main.c</text><text fill="#000000" font-family="sans-serif" font-size="12" lengthAdjust="spacing" textLength="103.3828" x="74.6953" y="115.1602">Main caller function</text><rect fill="#ADD8E6" height="65.2813" rx="12.5" ry="12.5" style="stroke:#181818;stroke-width:0.5;" width="206.7734" x="23" y="191.7969"/><text fill="#000000" font-family="sans-serif" font-size="12" font-weight="bold" lengthAdjust="spacing" textLength="88.6758" x="33" y="214.2539">testFunctions.c</text><text fill="#000000" font-family="sans-serif" font-size="12" lengthAdjust="spacing" textLength="186.7734" x="33" y="229.3477">Design a new implementation idea!</text><text fill="#000000" font-family="sans-serif" font-size="12" lengthAdjust="spacing" textLength="57.3691" x="33" y="244.4414">Super cool</text><ellipse cx="126.3867" cy="287.0781" fill="none" rx="10" ry="10" style="stroke:#222222;stroke-width:1.5;"/><line style="stroke:#222222;stroke-width:2.5;" x1="120.1995" x2="132.5739" y1="280.8909" y2="293.2653"/><line style="stroke:#222222;stroke-width:2.5;" x1="132.5739" x2="120.1995" y1="280.8909" y2="293.2653"/><polygon fill="#F1F1F1" points="90.6152,147.7969,162.1582,147.7969,174.1582,159.7969,162.1582,171.7969,90.6152,171.7969,78.6152,159.7969,90.6152,147.7969" style="stroke:#181818;stroke-width:0.5;"/><text fill="#000000" font-family="sans-serif" font-size="11" lengthAdjust="spacing" textLength="71.543" x="90.6152" y="164.2979">condition met?</text><rect fill="#F1F1F1" height="35.0938" rx="12.5" ry="12.5" style="stroke:#181818;stroke-width:0.5;" width="70.707" x="91.0332" y="394.1719"/><text fill="#000000" font-family="sans-serif" font-size="12" lengthAdjust="spacing" textLength="50.707" x="101.0332" y="416.6289">read data</text><rect fill="#ADD8E6" height="35.0938" rx="12.5" ry="12.5" style="stroke:#181818;stroke-width:0.5;" width="58.6895" x="97.042" y="339.0781"/><text fill="#000000" font-family="sans-serif" font-size="12" lengthAdjust="spacing" textLength="35.3555" x="110.376" y="361.5352">testing</text><polygon fill="#F1F1F1" points="98.5645,453.7188,154.209,453.7188,166.209,465.7188,154.209,477.7188,98.5645,477.7188,86.5645,465.7188,98.5645,453.7188" style="stroke:#181818;stroke-width:0.5;"/><text fill="#000000" font-family="sans-serif" font-size="11" lengthAdjust="spacing" textLength="55.6445" x="98.5645" y="470.2197">more data?</text><text fill="#000000" font-family="sans-serif" font-size="11" lengthAdjust="spacing" textLength="17.1177" x="166.209" y="463.3018">yes</text><rect fill="#F1F1F1" height="35.0938" rx="12.5" ry="12.5" style="stroke:#181818;stroke-width:0.5;" width="119.3809" x="190.209" y="388.625"/><text fill="#000000" font-family="sans-serif" font-size="12" lengthAdjust="spacing" textLength="96.0469" x="203.543" y="411.082">This is going back</text><ellipse cx="126.3867" cy="530.9717" fill="none" rx="11" ry="11" style="stroke:#222222;stroke-width:1.0;"/><ellipse cx="126.3867" cy="530.9717" fill="#222222" rx="6" ry="6" style="stroke:#222222;stroke-width:1.0;"/><line style="stroke:#181818;stroke-width:1.0;" x1="126.3867" x2="126.3867" y1="257.0781" y2="277.0781"/><polygon fill="#181818" points="122.3867,267.0781,126.3867,277.0781,130.3867,267.0781,126.3867,271.0781" style="stroke:#181818;stroke-width:1.0;"/><line style="stroke:#181818;stroke-width:1.0;" x1="126.3867" x2="126.3867" y1="171.7969" y2="191.7969"/><polygon fill="#181818" points="122.3867,181.7969,126.3867,191.7969,130.3867,181.7969,126.3867,185.7969" style="stroke:#181818;stroke-width:1.0;"/><line style="stroke:#181818;stroke-width:1.0;" x1="174.1582" x2="239.7734" y1="159.7969" y2="159.7969"/><polygon fill="#181818" points="235.7734,238.9375,239.7734,248.9375,243.7734,238.9375,239.7734,242.9375" style="stroke:#181818;stroke-width:1.0;"/><line style="stroke:#181818;stroke-width:1.0;" x1="239.7734" x2="239.7734" y1="159.7969" y2="319.0781"/><line style="stroke:#181818;stroke-width:1.0;" x1="239.7734" x2="126.3867" y1="319.0781" y2="319.0781"/><line style="stroke:#181818;stroke-width:1.0;" x1="126.3867" x2="126.3867" y1="319.0781" y2="339.0781"/><polygon fill="#181818" points="122.3867,329.0781,126.3867,339.0781,130.3867,329.0781,126.3867,333.0781" style="stroke:#181818;stroke-width:1.0;"/><line style="stroke:#181818;stroke-width:1.0;" x1="126.3867" x2="126.3867" y1="127.7969" y2="147.7969"/><polygon fill="#181818" points="122.3867,137.7969,126.3867,147.7969,130.3867,137.7969,126.3867,141.7969" style="stroke:#181818;stroke-width:1.0;"/><line style="stroke:#181818;stroke-width:1.0;" x1="126.3867" x2="126.3867" y1="374.1719" y2="394.1719"/><polygon fill="#181818" points="122.3867,384.1719,126.3867,394.1719,130.3867,384.1719,126.3867,388.1719" style="stroke:#181818;stroke-width:1.0;"/><line style="stroke:#181818;stroke-width:1.0;" x1="166.209" x2="249.8994" y1="465.7188" y2="465.7188"/><line style="stroke:#181818;stroke-width:1.0;" x1="249.8994" x2="249.8994" y1="423.7188" y2="465.7188"/><polygon fill="#181818" points="245.8994,433.7188,249.8994,423.7188,253.8994,433.7188,249.8994,429.7188" style="stroke:#181818;stroke-width:1.0;"/><line style="stroke:#181818;stroke-width:1.0;" x1="249.8994" x2="249.8994" y1="356.625" y2="388.625"/><line style="stroke:#181818;stroke-width:1.0;" x1="249.8994" x2="155.7314" y1="356.625" y2="356.625"/><polygon fill="#181818" points="165.7314,352.625,155.7314,356.625,165.7314,360.625,161.7314,356.625" style="stroke:#181818;stroke-width:1.0;"/><line style="stroke:#181818;stroke-width:1.0;" x1="126.3867" x2="126.3867" y1="429.2656" y2="453.7188"/><polygon fill="#181818" points="122.3867,443.7188,126.3867,453.7188,130.3867,443.7188,126.3867,447.7188" style="stroke:#181818;stroke-width:1.0;"/><line style="stroke:#181818;stroke-width:1.0;" x1="126.3867" x2="126.3867" y1="477.7188" y2="519.9717"/><polygon fill="#181818" points="122.3867,509.9717,126.3867,519.9717,130.3867,509.9717,126.3867,513.9717" style="stroke:#181818;stroke-width:1.0;"/><text fill="#000000" font-family="sans-serif" font-size="11" lengthAdjust="spacing" textLength="12.2354" x="130.3867" y="500.0547">no</text><line style="stroke:#181818;stroke-width:1.0;" x1="126.3867" x2="126.3867" y1="30" y2="77.6094"/><polygon fill="#181818" points="122.3867,67.6094,126.3867,77.6094,130.3867,67.6094,126.3867,71.6094" style="stroke:#181818;stroke-width:1.0;"/><!--SRC=[JP11RiGW34NtdCATRZ98xG4oKhkfPjTLvm8US1Ah110uYgggTo-GAAs5GFvyFnkoO1AbOjbPE7WuQHrJC9Iprl2Ex6zJ8hGd-5OAIlHQL_NPQDtoce11voZ1i7XJ8PVDoWDq9dYxWMUIrpF8HBvTrdXqF4voTmiLgb2Mwmx81xx66sKUFI1uMe7dw6WcBzYeR0aV3kV74iiO9WHtEJJoLkqd3zjW__ecYeG2FTJsxCU_khu-6omARjeTpUUAoVPmcpX3MMCe1KtV73jhdTWHT7D8rChBgukv-w9yRhQd5n_s7yeIeb8_lm00]--></g></svg>